<svg xmlns="http://www.w3.org/2000/svg">
<!-- Iconos de línea, 24x24, trazo 1.5. Se usan con <svg><use href="assets/iconos.svg#nombre"/></svg> -->
<symbol id="huespedes" viewBox="0 0 24 24" fill="none" stroke="currentColor" stroke-width="1.5" stroke-linecap="round" stroke-linejoin="round"><circle cx="9" cy="8" r="3.2"/><path d="M3 19.5c.6-3.3 3-5.3 6-5.3s5.4 2 6 5.3"/><circle cx="17" cy="9" r="2.4"/><path d="M16.2 14.3c2.4.1 4.2 1.8 4.8 4.7"/></symbol>
<symbol id="cama" viewBox="0 0 24 24" fill="none" stroke="currentColor" stroke-width="1.5" stroke-linecap="round" stroke-linejoin="round"><path d="M3 18.5V7M3 14h18v4.5M21 14v-2.2a2.8 2.8 0 0 0-2.8-2.8H11v5"/><rect x="5.5" y="9.6" width="3.8" height="3" rx="1.2"/></symbol>
<symbol id="bano" viewBox="0 0 24 24" fill="none" stroke="currentColor" stroke-width="1.5" stroke-linecap="round" stroke-linejoin="round"><path d="M4 12h16v2.5a4.5 4.5 0 0 1-4.5 4.5h-7A4.5 4.5 0 0 1 4 14.5V12Z"/><path d="M6 12V6.3A2.3 2.3 0 0 1 8.3 4c1 0 1.9.7 2.2 1.6M7.5 19l-1 1.8M16.5 19l1 1.8"/></symbol>
<symbol id="piscina" viewBox="0 0 24 24" fill="none" stroke="currentColor" stroke-width="1.5" stroke-linecap="round" stroke-linejoin="round"><path d="M8 15V5.5A1.8 1.8 0 0 1 11.3 4.5M16 15V5.5a1.8 1.8 0 0 1 3.3-1M8 8.5h8M8 12h8"/><path d="M2.5 17.5c1.6 0 1.6 1.2 3.2 1.2s1.6-1.2 3.2-1.2 1.6 1.2 3.1 1.2 1.6-1.2 3.2-1.2 1.6 1.2 3.2 1.2 1.6-1.2 3.1-1.2"/></symbol>
<symbol id="ancla" viewBox="0 0 24 24" fill="none" stroke="currentColor" stroke-width="1.5" stroke-linecap="round" stroke-linejoin="round"><circle cx="12" cy="5" r="2"/><path d="M12 7v14M8 10.5h8M4.5 13.5A7.5 7.5 0 0 0 12 21a7.5 7.5 0 0 0 7.5-7.5M3 14.8l1.5-1.3 1.5 1.3M18 14.8l1.5-1.3 1.5 1.3"/></symbol>
<symbol id="coche" viewBox="0 0 24 24" fill="none" stroke="currentColor" stroke-width="1.5" stroke-linecap="round" stroke-linejoin="round"><path d="M4 16.5v-4l1.8-4.6A1.8 1.8 0 0 1 7.5 6.7h9a1.8 1.8 0 0 1 1.7 1.2l1.8 4.6v4M4 12.5h16M4 16.5h16v1.8a1 1 0 0 1-1 1h-1.3a1 1 0 0 1-1-1v-1.8M7.3 16.5v1.8a1 1 0 0 1-1 1H5a1 1 0 0 1-1-1v-1.8"/><circle cx="7.5" cy="14.4" r=".6" fill="currentColor"/><circle cx="16.5" cy="14.4" r=".6" fill="currentColor"/></symbol>
<symbol id="frio" viewBox="0 0 24 24" fill="none" stroke="currentColor" stroke-width="1.5" stroke-linecap="round" stroke-linejoin="round"><path d="M12 3v18M4.2 7.5l15.6 9M4.2 16.5l15.6-9M9.5 4.5 12 7l2.5-2.5M9.5 19.5 12 17l2.5 2.5"/></symbol>
<symbol id="calor" viewBox="0 0 24 24" fill="none" stroke="currentColor" stroke-width="1.5" stroke-linecap="round" stroke-linejoin="round"><path d="M12 21a6 6 0 0 0 6-6c0-3.7-3-5.6-3.8-9.5-1.8 1.4-2.7 3-2.7 5-1.3-.6-2-1.6-2.2-3C7.4 9.3 6 11.8 6 15a6 6 0 0 0 6 6Z"/></symbol>
<symbol id="cocina" viewBox="0 0 24 24" fill="none" stroke="currentColor" stroke-width="1.5" stroke-linecap="round" stroke-linejoin="round"><rect x="4" y="3.5" width="16" height="17" rx="1.6"/><path d="M4 9h16"/><circle cx="8" cy="6.3" r=".7" fill="currentColor"/><circle cx="11.2" cy="6.3" r=".7" fill="currentColor"/><rect x="7" y="12" width="10" height="5.5" rx="1"/></symbol>
<symbol id="tv" viewBox="0 0 24 24" fill="none" stroke="currentColor" stroke-width="1.5" stroke-linecap="round" stroke-linejoin="round"><rect x="3" y="5" width="18" height="12" rx="1.5"/><path d="M8.5 20.5h7"/></symbol>
<symbol id="lavadora" viewBox="0 0 24 24" fill="none" stroke="currentColor" stroke-width="1.5" stroke-linecap="round" stroke-linejoin="round"><rect x="4" y="3" width="16" height="18" rx="2"/><path d="M4 7.2h16"/><circle cx="12" cy="14" r="4.2"/><path d="M9.6 14.6c.8-.8 1.6-.8 2.4 0s1.6.8 2.4 0"/></symbol>
<symbol id="escritorio" viewBox="0 0 24 24" fill="none" stroke="currentColor" stroke-width="1.5" stroke-linecap="round" stroke-linejoin="round"><rect x="5" y="4.5" width="14" height="9" rx="1.2"/><path d="M3 17.5h18M9 13.5l-.6 4M15 13.5l.6 4"/></symbol>
<symbol id="sol" viewBox="0 0 24 24" fill="none" stroke="currentColor" stroke-width="1.5" stroke-linecap="round" stroke-linejoin="round"><circle cx="12" cy="12" r="4"/><path d="M12 2.5v2M12 19.5v2M2.5 12h2M19.5 12h2M5.3 5.3l1.4 1.4M17.3 17.3l1.4 1.4M5.3 18.7l1.4-1.4M17.3 6.7l1.4-1.4"/></symbol>
<symbol id="ducha" viewBox="0 0 24 24" fill="none" stroke="currentColor" stroke-width="1.5" stroke-linecap="round" stroke-linejoin="round"><path d="M5 21V7a3.5 3.5 0 0 1 7 0v.5"/><path d="M8.5 7.5h7a3.5 3.5 0 0 0-7 0Z"/><path d="M10 11v1M12 11.5v1M14 11v1M11 14.5v1M13 14.5v1M12 17.5v1"/></symbol>
<symbol id="parrilla" viewBox="0 0 24 24" fill="none" stroke="currentColor" stroke-width="1.5" stroke-linecap="round" stroke-linejoin="round"><path d="M4 9h16a8 8 0 0 1-16 0ZM8 16l-2 5M16 16l2 5M12 17v4"/><path d="M9 3.5c-.8 1 .8 2-.1 3M12 3c-.8 1 .8 2-.1 3.2M15 3.5c-.8 1 .8 2-.1 3"/></symbol>
<symbol id="tumbona" viewBox="0 0 24 24" fill="none" stroke="currentColor" stroke-width="1.5" stroke-linecap="round" stroke-linejoin="round"><path d="M3 15.5h11.5l3.5-7.5M3 15.5V14M6 15.5 4.5 20M13 15.5l1.5 4.5M18 8l2.5-.5"/></symbol>
<symbol id="mesa" viewBox="0 0 24 24" fill="none" stroke="currentColor" stroke-width="1.5" stroke-linecap="round" stroke-linejoin="round"><path d="M3 9.5h18M6 9.5 4.5 20M18 9.5l1.5 10.5M8 13.5h8"/><path d="M12 4v3M10 7h4"/></symbol>
<symbol id="ropa" viewBox="0 0 24 24" fill="none" stroke="currentColor" stroke-width="1.5" stroke-linecap="round" stroke-linejoin="round"><path d="M12 6.5a1.8 1.8 0 1 1 1.8-1.8M12 6.5 3.5 14h17L12 6.5Z"/><path d="M5 14v5.5h14V14"/></symbol>
<symbol id="brillo" viewBox="0 0 24 24" fill="none" stroke="currentColor" stroke-width="1.5" stroke-linecap="round" stroke-linejoin="round"><path d="M11 3.5 12.6 8a3 3 0 0 0 1.9 1.9L19 11.5l-4.5 1.6a3 3 0 0 0-1.9 1.9L11 19.5 9.4 15a3 3 0 0 0-1.9-1.9L3 11.5l4.5-1.6A3 3 0 0 0 9.4 8L11 3.5ZM18.5 3v3M17 4.5h3"/></symbol>
<symbol id="burbujas" viewBox="0 0 24 24" fill="none" stroke="currentColor" stroke-width="1.5" stroke-linecap="round" stroke-linejoin="round"><path d="M3 14h18v2.5a3.5 3.5 0 0 1-3.5 3.5h-11A3.5 3.5 0 0 1 3 16.5V14Z"/><circle cx="8" cy="9.5" r="1.6"/><circle cx="13" cy="6" r="2"/><circle cx="16.5" cy="10.3" r="1.2"/></symbol>
<symbol id="llave" viewBox="0 0 24 24" fill="none" stroke="currentColor" stroke-width="1.5" stroke-linecap="round" stroke-linejoin="round"><circle cx="8" cy="15" r="4"/><path d="m10.9 12.1 8.6-8.6M16.5 6.5l2.5 2.5M14 9l2 2"/></symbol>
<symbol id="armario" viewBox="0 0 24 24" fill="none" stroke="currentColor" stroke-width="1.5" stroke-linecap="round" stroke-linejoin="round"><rect x="4.5" y="3" width="15" height="16.5" rx="1.2"/><path d="M12 3v16.5M10 9.5v3M14 9.5v3M6.5 19.5V21M17.5 19.5V21"/></symbol>
<symbol id="persiana" viewBox="0 0 24 24" fill="none" stroke="currentColor" stroke-width="1.5" stroke-linecap="round" stroke-linejoin="round"><rect x="4" y="3.5" width="16" height="17" rx="1.2"/><path d="M4 8h16M4 12h16M4 16h16"/></symbol>
<symbol id="reloj" viewBox="0 0 24 24" fill="none" stroke="currentColor" stroke-width="1.5" stroke-linecap="round" stroke-linejoin="round"><circle cx="12" cy="12" r="8.5"/><path d="M12 7.5V12l3 2"/></symbol>
<symbol id="pregunta" viewBox="0 0 24 24" fill="none" stroke="currentColor" stroke-width="1.5" stroke-linecap="round" stroke-linejoin="round"><circle cx="12" cy="12" r="8.5"/><path d="M9.8 9.6a2.3 2.3 0 0 1 4.4.8c0 1.6-2.2 1.9-2.2 3.4M12 16.8v.2"/></symbol>
<symbol id="calendario" viewBox="0 0 24 24" fill="none" stroke="currentColor" stroke-width="1.5" stroke-linecap="round" stroke-linejoin="round"><rect x="3.5" y="5" width="17" height="15.5" rx="1.8"/><path d="M3.5 10h17M8 3v4M16 3v4"/></symbol>
<symbol id="pin" viewBox="0 0 24 24" fill="none" stroke="currentColor" stroke-width="1.5" stroke-linecap="round" stroke-linejoin="round"><path d="M12 21s-6.5-5.7-6.5-11a6.5 6.5 0 0 1 13 0c0 5.3-6.5 11-6.5 11Z"/><circle cx="12" cy="10" r="2.4"/></symbol>
<symbol id="flecha" viewBox="0 0 24 24" fill="none" stroke="currentColor" stroke-width="1.6" stroke-linecap="round" stroke-linejoin="round"><path d="M4.5 12h15M13.5 6l6 6-6 6"/></symbol>
<symbol id="izquierda" viewBox="0 0 24 24" fill="none" stroke="currentColor" stroke-width="1.6" stroke-linecap="round" stroke-linejoin="round"><path d="M15 5.5 8.5 12l6.5 6.5"/></symbol>
<symbol id="derecha" viewBox="0 0 24 24" fill="none" stroke="currentColor" stroke-width="1.6" stroke-linecap="round" stroke-linejoin="round"><path d="M9 5.5 15.5 12 9 18.5"/></symbol>
<symbol id="cerrar" viewBox="0 0 24 24" fill="none" stroke="currentColor" stroke-width="1.6" stroke-linecap="round" stroke-linejoin="round"><path d="M6 6l12 12M18 6 6 18"/></symbol>
<symbol id="menu" viewBox="0 0 24 24" fill="none" stroke="currentColor" stroke-width="1.6" stroke-linecap="round" stroke-linejoin="round"><path d="M3.5 8h17M3.5 16h17"/></symbol>
<symbol id="mas" viewBox="0 0 24 24" fill="none" stroke="currentColor" stroke-width="1.6" stroke-linecap="round" stroke-linejoin="round"><path d="M12 5v14M5 12h14"/></symbol>
<symbol id="check" viewBox="0 0 24 24" fill="none" stroke="currentColor" stroke-width="1.8" stroke-linecap="round" stroke-linejoin="round"><path d="M5 12.5 10 17.5 19 7"/></symbol>
<symbol id="estrella" viewBox="0 0 24 24" fill="currentColor"><path d="M12 3.3l2.6 5.5 6 .7-4.4 4.1 1.1 5.9L12 16.6l-5.3 2.9 1.1-5.9-4.4-4.1 6-.7L12 3.3Z"/></symbol>
<symbol id="fotos" viewBox="0 0 24 24" fill="none" stroke="currentColor" stroke-width="1.5" stroke-linecap="round" stroke-linejoin="round"><rect x="3" y="5" width="14" height="12" rx="1.5"/><path d="M7 20h12.5a1.5 1.5 0 0 0 1.5-1.5V9"/><path d="m3 14 3.8-3.6 3.4 3 2.3-2 4.5 3.9"/></symbol>
<symbol id="whatsapp" viewBox="0 0 24 24" fill="currentColor"><path d="M17.472 14.382c-.297-.149-1.758-.867-2.03-.967-.273-.099-.471-.148-.67.15-.197.297-.767.966-.94 1.164-.173.199-.347.223-.644.075-.297-.15-1.255-.463-2.39-1.475-.883-.788-1.48-1.761-1.653-2.059-.173-.297-.018-.458.13-.606.134-.133.298-.347.446-.52.149-.174.198-.298.298-.497.099-.198.05-.371-.025-.52-.075-.149-.669-1.612-.916-2.207-.242-.579-.487-.5-.669-.51-.173-.008-.371-.01-.57-.01-.198 0-.52.074-.792.372-.272.297-1.04 1.016-1.04 2.479 0 1.462 1.065 2.875 1.213 3.074.149.198 2.096 3.2 5.077 4.487.709.306 1.262.489 1.694.625.712.227 1.36.195 1.871.118.571-.085 1.758-.719 2.006-1.413.248-.694.248-1.289.173-1.413-.074-.124-.272-.198-.57-.347m-5.421 7.403h-.004a9.87 9.87 0 01-5.031-1.378l-.361-.214-3.741.982.998-3.648-.235-.374a9.86 9.86 0 01-1.51-5.26c.001-5.45 4.436-9.884 9.888-9.884 2.64 0 5.122 1.03 6.988 2.898a9.825 9.825 0 012.893 6.994c-.003 5.45-4.437 9.884-9.885 9.884m8.413-18.297A11.815 11.815 0 0012.05 0C5.495 0 .16 5.335.157 11.892c0 2.096.547 4.142 1.588 5.945L.057 24l6.305-1.654a11.882 11.882 0 005.683 1.448h.005c6.554 0 11.89-5.335 11.893-11.893a11.821 11.821 0 00-3.48-8.413Z"/></symbol>
</svg>
